<?xml version="1.0" encoding="UTF-8"?>
<svg id="Layer_1" xmlns="http://www.w3.org/2000/svg" version="1.1" viewBox="0 0 200 199">
  <!-- Generator: Adobe Illustrator 29.3.0, SVG Export Plug-In . SVG Version: 2.1.0 Build 146)  -->
  <defs>
    <style>
      .st0, .st1 {
        fill: #1c437f;
      }

      .st1 {
        fill-rule: evenodd;
      }
    </style>
  </defs>
  <path class="st1" d="M93.9,0c-.7,0-1.3.4-1.5,1.1l-4,10.6c-.3.9-1.1,1.5-2,1.6-2.3.4-4.6.8-6.9,1.4-.9.2-1.8,0-2.5-.7l-7.8-8.3c-.5-.5-1.2-.7-1.8-.4l-11.2,4.7c-.6.3-1,.9-1,1.6l.3,11.4c0,.9-.4,1.8-1.2,2.3-2,1.2-3.9,2.5-5.8,3.9-.8.6-1.7.7-2.6.3l-10.3-4.7c-.6-.3-1.3-.2-1.8.3l-8.6,8.6c-.5.5-.6,1.2-.3,1.8l4.6,10.4c.4.9.3,1.8-.3,2.6-1.4,1.9-2.7,3.8-3.9,5.8-.5.8-1.3,1.2-2.3,1.2l-11.3-.3c-.7,0-1.3.4-1.6,1l-4.7,11.3c-.3.6-.1,1.4.4,1.8l8.2,7.8c.7.6.9,1.5.7,2.5-.5,2.3-1,4.6-1.4,6.9-.1.9-.7,1.7-1.6,2l-10.6,4c-.7.2-1.1.8-1.1,1.5v12.2c0,.7.4,1.3,1,1.5l10.6,4.1c0,0,.2,0,.2.1h0l1.4.5v-15.5h1.3v-3.3h15.2c3.3-35.9,33.5-64,70.1-64s66.8,28.1,70.1,64h15.2v3.3h1.3v15.5l1.4-.5h0c0,0,.2,0,.2-.1l10.6-4.1c.6-.2,1.1-.8,1.1-1.5v-12.2c0-.7-.4-1.3-1.1-1.5l-10.6-4c-.9-.3-1.5-1.1-1.6-2-.4-2.3-.8-4.6-1.4-6.9-.2-.9,0-1.8.7-2.5l8.2-7.8c.5-.5.7-1.2.4-1.8l-4.7-11.3c-.3-.6-.9-1-1.6-1l-11.3.3c-.9,0-1.8-.4-2.3-1.2-1.2-2-2.5-3.9-3.9-5.8-.6-.8-.7-1.7-.3-2.6l4.6-10.4c.3-.6.2-1.3-.3-1.8l-8.6-8.6c-.5-.5-1.2-.6-1.8-.3l-10.3,4.7c-.9.4-1.8.3-2.6-.3-1.9-1.4-3.8-2.7-5.8-3.9-.8-.5-1.2-1.3-1.2-2.3l.3-11.4c0-.7-.4-1.3-1-1.6l-11.2-4.7c-.6-.3-1.3-.1-1.8.4l-7.8,8.3c-.6.7-1.5,1-2.5.7-2.3-.5-4.6-1-6.9-1.4-.9-.1-1.7-.7-2-1.6l-4-10.6c-.2-.7-.8-1.1-1.5-1.1h-12.2Z"/>
  <path class="st1" d="M93.9,198.1c-.7,0-1.3-.4-1.5-1.1l-4-10.6c-.3-.9-1.1-1.5-2-1.6-2.3-.4-4.6-.8-6.9-1.4-.9-.2-1.8,0-2.5.7l-7.8,8.3c-.5.5-1.2.7-1.8.4l-11.2-4.7c-.6-.3-1-.9-1-1.6l.3-11.4c0-.9-.4-1.8-1.2-2.3-2-1.2-3.9-2.5-5.8-3.9-.8-.6-1.7-.7-2.6-.3l-10.3,4.7c-.6.3-1.3.2-1.8-.3l-8.6-8.6c-.5-.5-.6-1.2-.3-1.8l4.6-10.4c.4-.9.3-1.8-.3-2.6-1.4-1.9-2.7-3.8-3.9-5.8-.5-.8-1.3-1.2-2.3-1.2l-11.3.3c-.7,0-1.3-.4-1.6-1l-4.7-11.3c-.3-.6-.1-1.4.4-1.8l8.2-7.8c.7-.6.9-1.5.7-2.5-.5-2.3-1-4.6-1.4-6.9-.1-.9-.7-1.7-1.6-2l-10.6-4c-.7-.2-1.1-.8-1.1-1.5v-12.2c0-.7.4-1.3,1-1.5l10.6-4.1c0,0,.2,0,.2-.1h0l1.4-.5v15.5h1.3v3.3h15.2c3.3,35.9,33.5,64,70.1,64s66.8-28.1,70.1-64h15.2v-3.3h1.3v-15.5l1.4.5h0c0,0,.2,0,.2.1l10.6,4.1c.6.2,1.1.8,1.1,1.5v12.2c0,.7-.4,1.3-1.1,1.5l-10.6,4c-.9.3-1.5,1.1-1.6,2-.4,2.3-.8,4.6-1.4,6.9-.2.9,0,1.8.7,2.5l8.2,7.8c.5.5.7,1.2.4,1.8l-4.7,11.3c-.3.6-.9,1-1.6,1l-11.3-.3c-.9,0-1.8.4-2.3,1.2-1.2,2-2.5,3.9-3.9,5.8-.6.8-.7,1.7-.3,2.6l4.6,10.4c.3.6.2,1.3-.3,1.8l-8.6,8.6c-.5.5-1.2.6-1.8.3l-10.3-4.7c-.9-.4-1.8-.3-2.6.3-1.9,1.4-3.8,2.7-5.8,3.9-.8.5-1.2,1.3-1.2,2.3l.3,11.4c0,.7-.4,1.3-1,1.6l-11.2,4.7c-.6.3-1.3.1-1.8-.4l-7.8-8.3c-.6-.7-1.5-1-2.5-.7-2.3.5-4.6,1-6.9,1.4-.9.1-1.7.7-2,1.6l-4,10.6c-.2.7-.8,1.1-1.5,1.1h-12.2Z"/>
  <path class="st0" d="M188.6,91.4h-18.7c.7,6.9.6,10.6-.2,17.1h18.9v-17.1Z"/>
  <path class="st0" d="M11.4,91.4h18.7c-.7,6.9-.6,10.6.2,17.1H11.4v-17.1Z"/>
</svg>